<svg width="120.000000" height="20.000000" viewBox="0 0 120 20" fill="none" xmlns="http://www.w3.org/2000/svg" xmlns:xlink="http://www.w3.org/1999/xlink">
	<desc>
			Created with Pixso.
	</desc>
	<defs>
		<clipPath id="clip125_90">
			<rect id="solar:star-bold" rx="0.000000" width="19.000000" height="19.000000" transform="translate(0.500000 0.500000)" fill="white" fill-opacity="0"/>
		</clipPath>
		<clipPath id="clip125_92">
			<rect id="solar:star-bold" rx="0.000000" width="19.000000" height="19.000000" transform="translate(25.500000 0.500000)" fill="white" fill-opacity="0"/>
		</clipPath>
		<clipPath id="clip125_94">
			<rect id="solar:star-bold" rx="0.000000" width="19.000000" height="19.000000" transform="translate(50.500000 0.500000)" fill="white" fill-opacity="0"/>
		</clipPath>
		<clipPath id="clip125_96">
			<rect id="solar:star-bold" rx="0.000000" width="19.000000" height="19.000000" transform="translate(75.500000 0.500000)" fill="white" fill-opacity="0"/>
		</clipPath>
		<clipPath id="clip125_98">
			<rect id="solar:star-bold" rx="0.000000" width="19.000000" height="19.000000" transform="translate(100.500000 0.500000)" fill="white" fill-opacity="0"/>
		</clipPath>
	</defs>
	<rect id="solar:star-bold" rx="0.000000" width="19.000000" height="19.000000" transform="translate(0.500000 0.500000)" fill="#FFFFFF" fill-opacity="0"/>
	<g clip-path="url(#clip125_90)">
		<path id="Vector" d="M7.62 4.5C8.68 2.61 9.21 1.66 10 1.66C10.78 1.66 11.31 2.61 12.37 4.5L12.64 4.99C12.94 5.53 13.09 5.8 13.32 5.98C13.56 6.15 13.85 6.22 14.43 6.35L14.96 6.47C17.01 6.94 18.04 7.17 18.28 7.95C18.52 8.73 17.83 9.55 16.43 11.19L16.07 11.61C15.67 12.07 15.47 12.31 15.38 12.59C15.29 12.88 15.32 13.19 15.38 13.81L15.44 14.37C15.65 16.55 15.75 17.64 15.12 18.13C14.48 18.61 13.52 18.17 11.6 17.29L11.1 17.06C10.56 16.81 10.28 16.68 10 16.68C9.71 16.68 9.43 16.81 8.89 17.06L8.39 17.29C6.47 18.17 5.51 18.61 4.88 18.13C4.24 17.64 4.34 16.55 4.55 14.37L4.61 13.81C4.67 13.19 4.7 12.88 4.61 12.59C4.52 12.31 4.32 12.07 3.92 11.61L3.56 11.19C2.16 9.55 1.47 8.74 1.71 7.95C1.95 7.17 2.98 6.93 5.03 6.47L5.56 6.35C6.14 6.22 6.43 6.15 6.67 5.98C6.9 5.8 7.05 5.53 7.35 4.99L7.62 4.5Z" fill="#FFD233" fill-opacity="1.000000" fill-rule="nonzero"/>
	</g>
	<rect id="solar:star-bold" rx="0.000000" width="19.000000" height="19.000000" transform="translate(25.500000 0.500000)" fill="#FFFFFF" fill-opacity="0"/>
	<g clip-path="url(#clip125_92)">
		<path id="Vector" d="M32.62 4.5C33.68 2.61 34.21 1.66 35 1.66C35.78 1.66 36.31 2.61 37.37 4.5L37.64 4.99C37.94 5.53 38.09 5.8 38.32 5.98C38.56 6.15 38.85 6.22 39.43 6.35L39.96 6.47C42.01 6.94 43.04 7.17 43.28 7.95C43.52 8.73 42.83 9.55 41.43 11.19L41.07 11.61C40.67 12.07 40.47 12.31 40.38 12.59C40.29 12.88 40.32 13.19 40.38 13.81L40.44 14.37C40.65 16.55 40.75 17.64 40.12 18.13C39.48 18.61 38.52 18.17 36.6 17.29L36.1 17.06C35.56 16.81 35.28 16.68 35 16.68C34.71 16.68 34.43 16.81 33.89 17.06L33.39 17.29C31.47 18.17 30.51 18.61 29.88 18.13C29.24 17.64 29.34 16.55 29.55 14.37L29.61 13.81C29.67 13.19 29.7 12.88 29.61 12.59C29.52 12.31 29.32 12.07 28.92 11.61L28.56 11.19C27.16 9.55 26.47 8.74 26.71 7.95C26.95 7.17 27.98 6.93 30.03 6.47L30.56 6.35C31.14 6.22 31.43 6.15 31.67 5.98C31.9 5.8 32.05 5.53 32.35 4.99L32.62 4.5Z" fill="#FFD233" fill-opacity="1.000000" fill-rule="nonzero"/>
	</g>
	<rect id="solar:star-bold" rx="0.000000" width="19.000000" height="19.000000" transform="translate(50.500000 0.500000)" fill="#FFFFFF" fill-opacity="0"/>
	<g clip-path="url(#clip125_94)">
		<path id="Vector" d="M57.62 4.5C58.68 2.61 59.21 1.66 60 1.66C60.78 1.66 61.31 2.61 62.37 4.5L62.64 4.99C62.94 5.53 63.09 5.8 63.32 5.98C63.56 6.15 63.85 6.22 64.43 6.35L64.96 6.47C67.01 6.94 68.04 7.17 68.28 7.95C68.52 8.73 67.83 9.55 66.43 11.19L66.07 11.61C65.67 12.07 65.47 12.31 65.38 12.59C65.29 12.88 65.32 13.19 65.38 13.81L65.44 14.37C65.65 16.55 65.75 17.64 65.12 18.13C64.48 18.61 63.52 18.17 61.6 17.29L61.1 17.06C60.56 16.81 60.28 16.68 60 16.68C59.71 16.68 59.43 16.81 58.89 17.06L58.39 17.29C56.47 18.17 55.51 18.61 54.88 18.13C54.24 17.64 54.34 16.55 54.55 14.37L54.61 13.81C54.67 13.19 54.7 12.88 54.61 12.59C54.52 12.31 54.32 12.07 53.92 11.61L53.56 11.19C52.16 9.55 51.47 8.74 51.71 7.95C51.95 7.17 52.98 6.93 55.03 6.47L55.56 6.35C56.14 6.22 56.43 6.15 56.67 5.98C56.9 5.8 57.05 5.53 57.35 4.99L57.62 4.5Z" fill="#FFD233" fill-opacity="1.000000" fill-rule="nonzero"/>
	</g>
	<rect id="solar:star-bold" rx="0.000000" width="19.000000" height="19.000000" transform="translate(75.500000 0.500000)" fill="#FFFFFF" fill-opacity="0"/>
	<g clip-path="url(#clip125_96)">
		<path id="Vector" d="M82.62 4.5C83.68 2.61 84.21 1.66 85 1.66C85.78 1.66 86.31 2.61 87.37 4.5L87.64 4.99C87.94 5.53 88.09 5.8 88.32 5.98C88.56 6.15 88.85 6.22 89.43 6.35L89.96 6.47C92.01 6.94 93.04 7.17 93.28 7.95C93.52 8.73 92.83 9.55 91.43 11.19L91.07 11.61C90.67 12.07 90.47 12.31 90.38 12.59C90.29 12.88 90.32 13.19 90.38 13.81L90.44 14.37C90.65 16.55 90.75 17.64 90.12 18.13C89.48 18.61 88.52 18.17 86.6 17.29L86.1 17.06C85.56 16.81 85.28 16.68 85 16.68C84.71 16.68 84.43 16.81 83.89 17.06L83.39 17.29C81.47 18.17 80.51 18.61 79.87 18.13C79.24 17.64 79.34 16.55 79.55 14.37L79.61 13.81C79.67 13.19 79.7 12.88 79.61 12.59C79.52 12.31 79.32 12.07 78.92 11.61L78.56 11.19C77.16 9.55 76.47 8.74 76.71 7.95C76.95 7.17 77.98 6.93 80.03 6.47L80.56 6.35C81.14 6.22 81.43 6.15 81.67 5.98C81.9 5.8 82.05 5.53 82.35 4.99L82.62 4.5Z" fill="#FFD233" fill-opacity="1.000000" fill-rule="nonzero"/>
	</g>
	<rect id="solar:star-bold" rx="0.000000" width="19.000000" height="19.000000" transform="translate(100.500000 0.500000)" fill="#FFFFFF" fill-opacity="0"/>
	<g clip-path="url(#clip125_98)">
		<path id="Vector" d="M107.62 4.5C108.68 2.61 109.21 1.66 110 1.66C110.78 1.66 111.31 2.61 112.37 4.5L112.64 4.99C112.94 5.53 113.09 5.8 113.32 5.98C113.56 6.15 113.85 6.22 114.43 6.35L114.96 6.47C117.01 6.94 118.04 7.17 118.28 7.95C118.52 8.73 117.83 9.55 116.43 11.19L116.07 11.61C115.67 12.07 115.47 12.31 115.38 12.59C115.29 12.88 115.32 13.19 115.38 13.81L115.44 14.37C115.65 16.55 115.75 17.64 115.12 18.13C114.48 18.61 113.52 18.17 111.6 17.29L111.1 17.06C110.56 16.81 110.28 16.68 110 16.68C109.71 16.68 109.43 16.81 108.89 17.06L108.39 17.29C106.47 18.17 105.51 18.61 104.88 18.13C104.24 17.64 104.34 16.55 104.55 14.37L104.61 13.81C104.67 13.19 104.7 12.88 104.61 12.59C104.52 12.31 104.32 12.07 103.92 11.61L103.56 11.19C102.16 9.55 101.47 8.74 101.71 7.95C101.95 7.17 102.98 6.93 105.03 6.47L105.56 6.35C106.14 6.22 106.43 6.15 106.67 5.98C106.9 5.8 107.05 5.53 107.35 4.99L107.62 4.5Z" fill="#FFD233" fill-opacity="1.000000" fill-rule="nonzero"/>
	</g>
</svg>
