<svg width="289.000000" height="58.000000" viewBox="0 0 289 58" fill="none" xmlns="http://www.w3.org/2000/svg" xmlns:xlink="http://www.w3.org/1999/xlink">
	<desc>
			Created with Pixso.
	</desc>
	<defs>
		<filter id="filter_125_101_dd" x="7.000977" y="15.681641" width="53.580200" height="26.637695" filterUnits="userSpaceOnUse" color-interpolation-filters="sRGB">
			<feFlood flood-opacity="0" result="BackgroundImageFix"/>
			<feColorMatrix in="SourceAlpha" type="matrix" values="0 0 0 0 0 0 0 0 0 0 0 0 0 0 0 0 0 0 127 0" result="hardAlpha"/>
			<feOffset dx="0" dy="4"/>
			<feGaussianBlur stdDeviation="1.33333"/>
			<feComposite in2="hardAlpha" operator="out" k2="-1" k3="1"/>
			<feColorMatrix type="matrix" values="0 0 0 0 0 0 0 0 0 0 0 0 0 0 0 0 0 0 0.25 0"/>
			<feBlend mode="normal" in2="BackgroundImageFix" result="effect_dropShadow_1"/>
			<feBlend mode="normal" in="SourceGraphic" in2="effect_dropShadow_1" result="shape"/>
		</filter>
		<filter id="filter_125_104_dd" x="231.000000" y="0.000000" width="58.000000" height="58.000000" filterUnits="userSpaceOnUse" color-interpolation-filters="sRGB">
			<feFlood flood-opacity="0" result="BackgroundImageFix"/>
			<feColorMatrix in="SourceAlpha" type="matrix" values="0 0 0 0 0 0 0 0 0 0 0 0 0 0 0 0 0 0 127 0" result="hardAlpha"/>
			<feOffset dx="0" dy="4"/>
			<feGaussianBlur stdDeviation="1.33333"/>
			<feComposite in2="hardAlpha" operator="out" k2="-1" k3="1"/>
			<feColorMatrix type="matrix" values="0 0 0 0 0 0 0 0 0 0 0 0 0 0 0 0 0 0 0.25 0"/>
			<feBlend mode="normal" in2="BackgroundImageFix" result="effect_dropShadow_1"/>
			<feBlend mode="normal" in="SourceGraphic" in2="effect_dropShadow_1" result="shape"/>
		</filter>
		<clipPath id="clip125_104">
			<rect id="mage:tag-plus-fill" rx="0.000000" width="49.000000" height="49.000000" transform="translate(235.500000 0.500000)" fill="white" fill-opacity="0"/>
		</clipPath>
	</defs>
	<g filter="url(#filter_125_101_dd)">
		<path id="275$" d="M51.09 32.25L51.09 34.31L52.29 34.31L52.29 32.25Q53.39 32.17 54.25 31.79C54.99 31.46 55.56 31 55.97 30.4C56.37 29.8 56.58 29.09 56.58 28.27C56.58 27.46 56.39 26.8 56.01 26.31C55.64 25.81 55.15 25.41 54.54 25.12Q53.62 24.7 52.51 24.44L52.29 24.38L52.29 18.9C52.64 18.95 52.97 19.04 53.28 19.16C53.82 19.37 54.26 19.7 54.57 20.15C54.89 20.61 55.05 21.2 55.05 21.94L55.05 22.87L56.34 22.87L56.34 21.94C56.34 21 56.12 20.23 55.68 19.61C55.25 18.99 54.66 18.52 53.92 18.2Q53.17 17.87 52.29 17.76L52.29 15.68L51.09 15.68L51.09 17.72C50.31 17.75 49.62 17.9 49.01 18.17C48.32 18.47 47.78 18.9 47.38 19.46Q47.26 19.64 47.16 19.83Q46.8 20.54 46.8 21.43C46.8 22.2 46.97 22.82 47.31 23.31C47.66 23.79 48.14 24.19 48.73 24.49C49.33 24.78 50.01 25.04 50.78 25.24L51.09 25.32L51.09 31.13C50.2 31.04 49.45 30.74 48.84 30.23C48.1 29.61 47.73 28.65 47.73 27.36L47.73 26.98L46.45 26.98L46.45 27.36C46.45 28.48 46.68 29.4 47.13 30.12C47.59 30.85 48.21 31.39 48.99 31.75Q49.94 32.17 51.09 32.25ZM52.29 31.13C53.16 31.05 53.85 30.78 54.35 30.34C54.98 29.8 55.3 29.11 55.3 28.27Q55.3 27.43 54.89 26.93Q54.48 26.41 53.74 26.11C53.32 25.92 52.84 25.76 52.29 25.62L52.29 31.13ZM51.09 24.08L51.09 18.85C50.27 18.89 49.58 19.11 49.02 19.5C48.39 19.95 48.08 20.59 48.08 21.43C48.08 21.99 48.21 22.44 48.47 22.78C48.73 23.11 49.09 23.38 49.56 23.58C50 23.76 50.51 23.93 51.09 24.08ZM13.44 31.72Q14.59 32.27 16.05 32.27Q17.53 32.27 18.63 31.74Q19.46 31.33 20 30.69Q20.19 30.47 20.34 30.23C20.74 29.58 20.94 28.82 20.94 27.96L20.94 27.76Q20.94 26.45 20.34 25.58Q20.14 25.31 19.91 25.07Q19.41 24.57 18.72 24.27C18.04 23.97 17.26 23.82 16.4 23.82L15.29 23.82L15.29 23.62L20.91 19.79L20.91 18L11.31 18L11.31 19.11L19.67 19.11L19.67 19.31L13.99 23.18L13.99 24.86L16.05 24.86Q17.06 24.86 17.89 25.17C18.44 25.37 18.88 25.69 19.2 26.12C19.53 26.54 19.7 27.1 19.7 27.8L19.7 27.91C19.7 28.85 19.38 29.62 18.74 30.24C18.09 30.85 17.2 31.16 16.05 31.16Q14.68 31.16 13.72 30.52Q13.5 30.37 13.3 30.19C12.59 29.54 12.24 28.65 12.24 27.51L12.24 27.12L11 27.12L11 27.49Q11 29.02 11.65 30.09Q11.93 30.55 12.3 30.92Q12.79 31.4 13.44 31.72ZM25.25 31.52L25.25 32L26.49 32L26.49 31.52Q26.49 30.99 26.58 30.67C26.64 30.45 26.75 30.2 26.89 29.93L32.73 19.46L32.73 18L22.75 18L22.75 19.11L31.42 19.11L31.42 19.29L25.83 29.29C25.61 29.72 25.46 30.08 25.38 30.38C25.29 30.68 25.25 31.06 25.25 31.52ZM36.85 31.69Q37.96 32.27 39.44 32.27Q40.95 32.27 42.04 31.65C42.77 31.24 43.33 30.67 43.72 29.95C44.12 29.23 44.31 28.41 44.31 27.47L44.31 27.27C44.31 26.31 44.12 25.48 43.73 24.78C43.35 24.08 42.83 23.54 42.17 23.17C41.52 22.79 40.79 22.6 39.97 22.6C39.27 22.6 38.68 22.7 38.21 22.9C37.73 23.1 37.36 23.34 37.08 23.64C36.8 23.93 36.58 24.23 36.43 24.53L36.19 24.53L36.19 19.11L44 19.11L44 18L34.95 18L34.95 25.46L36.79 25.46Q36.99 25.08 37.32 24.67C37.54 24.39 37.85 24.16 38.23 23.97C38.62 23.77 39.11 23.67 39.69 23.67Q40.73 23.67 41.49 24.13Q41.85 24.35 42.14 24.66C42.76 25.31 43.07 26.19 43.07 27.29L43.07 27.45C43.07 28.62 42.75 29.52 42.1 30.18C41.46 30.83 40.56 31.16 39.42 31.16C38.35 31.16 37.47 30.86 36.79 30.26C36.11 29.65 35.77 28.75 35.77 27.56L35.77 27.36L34.53 27.36L34.53 27.62C34.53 28.54 34.74 29.35 35.14 30.05C35.55 30.75 36.12 31.29 36.85 31.69Z" fill="#000000" fill-opacity="1.000000" fill-rule="evenodd"/>
	</g>
	<g filter="url(#filter_125_104_dd)">
		<rect id="mage:tag-plus-fill" rx="0.000000" width="49.000000" height="49.000000" transform="translate(235.500000 0.500000)" fill="#FFFFFF" fill-opacity="0"/>
		<g clip-path="url(#clip125_104)">
			<path id="Vector" d="M278.37 11.92C276.75 10.31 274.57 9.41 272.29 9.4L253.2 9.4C252.05 9.38 250.9 9.59 249.82 10.02C248.75 10.46 247.77 11.1 246.95 11.92C246.89 11.97 246.85 12.02 246.81 12.09L240.39 20.86C239.59 22.1 239.16 23.55 239.16 25.03C239.18 26.51 239.62 27.95 240.43 29.19L246.81 37.88L246.95 38.07C247.75 38.87 248.7 39.5 249.74 39.94C250.79 40.37 251.91 40.59 253.04 40.59L272.22 40.59C274.51 40.58 276.69 39.68 278.31 38.07C279.11 37.27 279.74 36.32 280.18 35.28C280.61 34.23 280.83 33.11 280.83 31.98L280.83 17.88C280.82 15.65 279.93 13.51 278.37 11.92ZM270.27 27.15L264.66 27.15L264.66 32.76C264.66 33.31 264.44 33.84 264.05 34.23C263.66 34.62 263.13 34.84 262.58 34.84C262.03 34.84 261.5 34.62 261.1 34.23C260.71 33.84 260.5 33.31 260.5 32.76L260.5 27.17L254.91 27.17C254.36 27.17 253.83 26.95 253.44 26.56C253.05 26.17 252.83 25.64 252.83 25.09C252.83 24.54 253.05 24.01 253.44 23.62C253.83 23.22 254.36 23.01 254.91 23.01L260.5 23.01L260.5 17.4C260.5 16.85 260.71 16.32 261.1 15.93C261.5 15.54 262.03 15.32 262.58 15.32C263.13 15.32 263.66 15.54 264.05 15.93C264.44 16.32 264.66 16.85 264.66 17.4L264.66 23.01L270.27 23.01C270.82 23.01 271.35 23.22 271.74 23.62C272.13 24.01 272.35 24.54 272.35 25.09C272.35 25.64 272.13 26.17 271.74 26.56C271.35 26.95 270.82 27.17 270.27 27.17L270.27 27.15Z" fill="#FFD233" fill-opacity="1.000000" fill-rule="nonzero"/>
		</g>
	</g>
</svg>
